<?xml version="1.0" standalone="no"?>
<!DOCTYPE svg PUBLIC "-//W3C//DTD SVG 20010904//EN"
 "http://www.w3.org/TR/2001/REC-SVG-20010904/DTD/svg10.dtd">
<svg version="1.0" xmlns="http://www.w3.org/2000/svg"
 width="1024.000000pt" height="1024.000000pt" viewBox="0 0 1024.000000 1024.000000"
 preserveAspectRatio="xMidYMid meet">

<g transform="translate(0.000000,1024.000000) scale(0.100000,-0.100000)"
fill="#000000" stroke="none">
<path d="M5724 8158 c-12 -5 -27 -21 -35 -34 -7 -13 -19 -24 -28 -24 -26 0
-116 -57 -145 -91 -100 -118 -119 -302 -46 -451 37 -77 84 -125 156 -162 l51
-26 6 -248 c9 -310 9 -1269 1 -1300 -4 -14 -30 -35 -73 -59 -117 -64 -274
-164 -370 -237 -52 -38 -129 -94 -170 -123 -168 -116 -366 -250 -409 -277 -26
-16 -90 -57 -142 -91 -52 -34 -158 -95 -235 -134 -76 -40 -144 -76 -150 -81
-21 -17 -335 -158 -452 -204 -67 -26 -144 -63 -170 -82 -27 -19 -67 -48 -90
-64 -40 -28 -43 -34 -43 -75 0 -31 6 -51 23 -69 37 -41 137 -85 218 -95 73
-10 202 -1 264 18 106 31 293 118 400 184 84 53 323 239 450 351 66 58 174
152 240 208 66 57 156 137 200 178 98 93 299 262 379 318 32 23 83 51 112 62
73 27 108 50 262 173 132 107 249 187 271 187 7 0 -26 -42 -71 -92 -46 -51
-107 -127 -135 -168 -71 -104 -151 -178 -266 -245 -132 -77 -242 -166 -550
-450 -334 -306 -583 -526 -707 -623 -47 -36 -119 -95 -160 -131 -167 -146
-227 -195 -411 -327 -98 -70 -144 -129 -144 -185 0 -46 25 -75 98 -115 48 -27
59 -29 162 -29 154 1 257 37 383 138 53 41 235 237 417 446 22 25 100 114 175
196 134 149 212 239 282 325 100 124 242 288 351 408 67 74 153 175 190 225
37 51 103 130 146 177 42 47 102 119 133 160 30 41 83 106 116 143 34 38 68
88 76 110 23 66 58 437 41 437 -24 0 -400 -304 -432 -349 -8 -12 -20 -33 -28
-47 -23 -46 -28 239 -20 1229 8 1014 9 984 -46 1012 -32 17 -46 18 -75 3z
m-36 -519 l-3 -112 -33 28 c-113 95 -119 263 -14 365 l47 45 3 -107 c1 -59 1
-157 0 -219z"/>
<path d="M6446 8151 c-16 -11 -33 -26 -36 -33 -4 -7 -4 -678 -1 -1491 3 -812
5 -1477 3 -1477 -1 0 -19 9 -39 20 -58 31 -89 26 -134 -19 -44 -43 -48 -69
-21 -119 28 -53 61 -68 122 -56 28 6 53 7 55 3 3 -4 4 -45 3 -90 -2 -90 8
-119 47 -145 20 -13 28 -14 52 -2 45 21 63 70 63 171 l0 88 30 -16 c60 -31
110 -15 150 50 27 43 21 90 -15 129 -30 32 -70 34 -125 6 -22 -11 -41 -20 -42
-20 -3 0 -2 948 2 1717 l2 491 37 7 c84 15 189 119 227 227 66 187 -12 399
-176 481 -27 14 -64 41 -83 61 -40 42 -76 47 -121 17z m190 -243 c37 -40 66
-109 71 -169 5 -47 1 -66 -20 -110 -32 -68 -44 -82 -84 -103 l-32 -16 -3 224
-3 224 25 -13 c14 -7 35 -24 46 -37z"/>
<path d="M4187 7801 c-20 -4 -52 -19 -71 -32 -18 -13 -200 -184 -402 -380
-203 -195 -537 -516 -742 -713 -369 -354 -476 -467 -512 -537 -19 -36 -90
-259 -90 -281 0 -6 10 -2 23 9 12 12 76 58 142 103 66 46 151 108 190 139 38
31 88 70 111 86 23 17 133 114 245 216 112 103 245 220 294 262 50 41 246 227
436 414 190 187 367 353 392 368 45 26 49 26 72 11 28 -18 78 -102 160 -266
32 -63 111 -209 176 -325 65 -115 123 -231 130 -258 11 -44 10 -50 -15 -87
-14 -22 -26 -41 -26 -43 0 -3 26 -7 58 -11 76 -9 235 -62 291 -98 25 -16 47
-25 49 -20 1 5 -22 72 -52 148 -30 77 -66 168 -79 204 -14 36 -44 110 -67 165
-24 56 -45 121 -47 148 l-3 47 117 -60 c121 -62 141 -74 399 -242 83 -54 155
-98 160 -98 5 0 9 71 9 165 l0 164 -40 22 c-306 172 -716 435 -955 613 -225
167 -262 185 -353 167z"/>
<path d="M7120 7102 c-21 -10 -71 -62 -127 -132 -51 -63 -151 -172 -223 -242
l-130 -128 0 -123 c0 -68 -3 -160 -6 -203 l-6 -79 223 221 c123 122 267 263
319 315 105 103 148 171 157 248 7 62 -10 107 -48 126 -38 20 -116 19 -159 -3z"/>
<path d="M5978 6618 c2 -108 7 -167 15 -174 7 -7 45 -26 85 -44 l73 -31 42 31
c23 17 49 36 59 43 12 9 17 32 20 86 l4 74 -76 48 c-41 26 -101 64 -133 84
-98 62 -92 70 -89 -117z"/>
<path d="M3675 6486 c-55 -25 -118 -90 -161 -164 -50 -88 -168 -237 -268 -339
l-99 -103 35 0 c70 0 213 57 330 131 105 67 265 302 283 416 5 34 3 45 -14 62
-27 27 -44 26 -106 -3z"/>
<path d="M6895 6209 c-15 -22 -50 -66 -78 -98 -98 -108 -97 -95 -1 -126 47
-15 106 -39 132 -53 113 -61 529 -267 652 -322 74 -34 184 -79 244 -101 106
-39 108 -39 102 -17 -3 13 -9 66 -12 118 -7 90 -9 97 -39 125 -17 17 -58 43
-91 59 -68 34 -302 162 -449 246 -55 32 -136 76 -181 98 -44 22 -107 56 -140
76 -79 48 -107 47 -139 -5z"/>
<path d="M5646 4770 c-11 -23 -50 -79 -88 -125 -67 -83 -68 -85 -41 -86 149
-3 813 -3 813 0 0 2 -27 28 -59 58 -53 48 -61 60 -72 111 -7 31 -15 60 -18 63
-3 4 -121 9 -261 13 l-255 6 -19 -40z"/>
<path d="M6778 4798 c-9 -7 -31 -42 -49 -78 -17 -36 -50 -84 -72 -107 -22 -24
-37 -46 -33 -50 10 -10 1134 -27 1205 -18 101 13 158 103 117 183 -33 65 -15
63 -558 67 -271 3 -516 7 -543 10 -33 4 -56 1 -67 -7z"/>
<path d="M2330 4762 c-34 -34 -40 -46 -40 -81 0 -57 22 -95 66 -116 34 -16 72
-17 393 -16 208 1 372 6 395 12 45 12 62 22 166 98 113 83 151 119 137 128 -7
4 -252 9 -545 11 l-533 3 -39 -39z"/>
<path d="M5240 4282 c-6 -2 -30 -35 -55 -73 -24 -38 -63 -89 -86 -114 -23 -25
-39 -49 -35 -53 4 -4 308 -5 674 -3 367 2 965 -2 1330 -9 659 -13 663 -13 690
7 35 26 72 90 72 127 0 20 -11 40 -38 66 l-37 38 -595 6 c-705 8 -1906 12
-1920 8z"/>
<path d="M2493 4250 c-68 -41 -78 -99 -30 -171 35 -53 78 -69 181 -69 92 0
361 18 384 25 8 3 2 24 -23 71 -24 46 -35 79 -35 109 0 30 -5 45 -16 49 -9 3
-109 6 -222 6 -188 0 -210 -2 -239 -20z"/>
<path d="M3190 3769 c-385 -12 -424 -16 -460 -46 -16 -13 -35 -42 -41 -64 -11
-36 -10 -42 17 -86 49 -79 62 -82 254 -73 91 5 267 9 393 9 125 1 227 4 227 9
0 4 -12 27 -26 52 -23 41 -24 48 -14 90 6 25 20 59 30 77 18 31 18 31 -3 37
-12 3 -42 5 -67 4 -25 0 -164 -5 -310 -9z"/>
<path d="M4784 3770 c-12 -4 -33 -28 -47 -52 -14 -25 -60 -75 -102 -113 -56
-50 -73 -71 -65 -79 17 -17 430 -23 1737 -27 l1161 -4 38 30 c20 17 49 51 63
76 23 42 24 48 11 78 -28 69 61 63 -1223 72 -639 5 -1234 13 -1322 19 -187 12
-223 12 -251 0z"/>
<path d="M3467 3230 c-274 -7 -332 -11 -352 -24 -36 -24 -58 -61 -50 -87 8
-26 67 -92 107 -120 29 -21 32 -21 1934 -25 l1906 -5 43 21 c50 24 135 111
135 137 0 10 -9 32 -19 50 -16 26 -28 33 -63 37 -24 3 -664 8 -1423 11 -759 3
-1495 7 -1635 9 -140 2 -403 1 -583 -4z"/>
<path d="M3739 2683 c-15 -2 -35 -13 -45 -25 -19 -20 -18 -20 11 -44 79 -64
356 -182 479 -205 41 -7 101 -7 209 1 168 13 911 18 1417 10 l325 -5 107 42
c59 23 154 68 210 100 57 33 111 62 121 66 15 5 16 10 7 27 -6 12 -22 25 -36
30 -24 10 -2746 12 -2805 3z"/>
</g>
</svg>
